<svg id="Layer_1" data-name="Layer 1" xmlns="http://www.w3.org/2000/svg" viewBox="0 0 466 226.78"><title>yearn</title><path d="M111.6,25.44" transform="translate(-20 -39.83)"/><g id="g2674"><path id="path2776" d="M386,141.38l-35.34-11.13-7.95-6.41-1.63,6.51-19.53-17.9,17.9-4.88L320,78.27l38.68,33.68,1.59,12.73ZM211.27,124.64l-.5.5-1.14-.63ZM396.55,168.8C379.5,167.43,362.11,162.14,344,152a194.42,194.42,0,0,0-52.68-20.25l16.13-11.33s-13.55-17.71-16.81-17.71,11.45-21.41,11.45-21.41l-6.57-20.91s-17,2.29-32.08,19.05,32-30.62,32-30.62l107.18,89.42-1.55,7.74,5-1.3-5.69,4.76-1.67,8.34-.79,3.94,5.91-2-6.9,7Zm17.21-1.08-5.69-3.17,6.22.52ZM175.4,147.39C304.71,115.06,306.12,228.32,405,203.6c-95.45,44.23-106.17-70.36-229.6-56.21M351.94,90.07l-5.11-4.84M316.72,60.37c-17.9-16.28-13-19.53-20.64-20.53-5.4,12.39-64.2,64.2-64.2,64.2l-.24-1.18-6.32-2.43,5.84.32-1.67-8.62-4.17-1.53h3.86l-3.86-19.28-3,15,3-.79-3.26,2.06-1.74,8.67,5-1.3-5.69,4.76L218,108.06l-.79,3.94,5.91-2-6.9,7-.64,3.21-.5-2.48-1-5.19-6.32-2.43,5.84.32-1.67-8.62-4.17-1.53h3.86L207.68,81l-3,15,3-.79-3.26,2.06-1.74,8.67,5-1.3L202,109.35l-1.67,8.34-.79,3.94,5.91-2-6.9,7-1.47,7.35-2.47.7-7.26-4,6.89.58-1.48-7.39-1-5.19-6.32-2.43,5.84.32-1.67-8.62-4.17-1.53h3.86L185.39,87l-3,15,3-.79-3.26,2.07L180.39,112l5-1.3-5.69,4.76L178,123.77l-.79,3.94,5.91-2-6.9,7-1.8,9A194.47,194.47,0,0,0,153.2,152c32.65-10.26,60.45-16.31,87.39-15.13l.64-3.21,3.45-3.49-3,1,.4-2L243,125l2.84-2.38-2.5.65.87-4.33,1.63-1-1.5.4,1.5-7.5,1.93,9.64H245.8l2.08.76.84,4.31-2.92-.16,3.16,1.21.52,2.6.74,3.69-3.44-.29,3.81,2.12.6,3q3.87.45,7.72,1.12l6.9-7-5.91,2,.79-3.94,1.67-8.34,5.69-4.76-5,1.3,1.74-8.67,3.26-2.06-3,.79,3-15,3.86,19.28H268l4.17,1.53,1.67,8.62-5.84-.32,6.32,2.43,1,5.19,1.48,7.39-6.89-.58,7.62,4.24.51,2.54c16.5,5.24,33.36,13.69,51.51,26.06,46.94,32,121.28,19.88,156.36-25.18-15,8.45-29.81,15.15-44.61,19.44l-.26-1.28-3.81-2.12,3.44.29L440,157l-.52-2.6-3.16-1.22,2.92.16-.84-4.31-2.08-.76h1.93l-1.93-9.64-1.5,7.5,1.5-.4-1.63,1-.87,4.34,2.5-.65-2.84,2.38-.83,4.17-.39,2,3-1-3.45,3.49-1,5h0l-.91.19-.35-1.74-6.05-3.37,5.47.46-1.18-5.87-.83-4.13-5-1.93,4.64.25-1.33-6.84-3.31-1.21H425L421.92,127l-2.39,11.91,2.39-.63-2.59,1.64L418,146.78l4-1-4.52,3.78-1.33,6.62-.63,3.13,4.69-1.6-5.48,5.54,0,.22-1.14-5.69-1-5.19-6.32-2.43,5.84.32-1.67-8.62-4.17-1.53H410L406.12,121l-3,15,3-.79-3.26,2.07-.17.84-27.75-26.27" transform="translate(-20 -39.83)" style="fill:#b3b3b3"/></g><text transform="translate(11.87 169.47)" style="font-size:117.19523620605469px;fill:#c7b299;font-family:SignPainter-HouseScript, SignPainter">yearn</text></svg>