<svg id="Layer_1" data-name="Layer 1" xmlns="http://www.w3.org/2000/svg" viewBox="0 0 466 212.59"><title>yearn</title><path d="M111.6,25.44" transform="translate(-20 -39.83)"/><g id="g2674"><path id="path2776" d="M386,141.38l-35.34-11.13-7.95-6.41-1.63,6.51-19.53-17.9,17.9-4.88L320,78.27l38.68,33.68,1.59,12.73ZM211.27,124.64l-.5.5-1.14-.63ZM396.55,168.8C379.5,167.43,362.11,162.14,344,152a194.42,194.42,0,0,0-52.68-20.25l16.13-11.33s-13.55-17.71-16.81-17.71,11.45-21.41,11.45-21.41l-6.57-20.91s-17,2.29-32.08,19.05,32-30.62,32-30.62l107.18,89.42-1.55,7.74,5-1.3-5.69,4.76-1.67,8.34-.79,3.94,5.91-2-6.9,7Zm17.21-1.08-5.69-3.17,6.22.52ZM175.4,147.39C304.71,115.06,306.12,228.32,405,203.6c-95.45,44.23-106.17-70.36-229.6-56.21M351.94,90.07l-5.11-4.84M316.72,60.37c-17.9-16.28-13-19.53-20.64-20.53-5.4,12.39-64.2,64.2-64.2,64.2l-.24-1.18-6.32-2.43,5.84.32-1.67-8.62-4.17-1.53h3.86l-3.86-19.28-3,15,3-.79-3.26,2.06-1.74,8.67,5-1.3-5.69,4.76L218,108.06l-.79,3.94,5.91-2-6.9,7-.64,3.21-.5-2.48-1-5.19-6.32-2.43,5.84.32-1.67-8.62-4.17-1.53h3.86L207.68,81l-3,15,3-.79-3.26,2.06-1.74,8.67,5-1.3L202,109.35l-1.67,8.34-.79,3.94,5.91-2-6.9,7-1.47,7.35-2.47.7-7.26-4,6.89.58-1.48-7.39-1-5.19-6.32-2.43,5.84.32-1.67-8.62-4.17-1.53h3.86L185.39,87l-3,15,3-.79-3.26,2.07L180.39,112l5-1.3-5.69,4.76L178,123.77l-.79,3.94,5.91-2-6.9,7-1.8,9A194.47,194.47,0,0,0,153.2,152c32.65-10.26,60.45-16.31,87.39-15.13l.64-3.21,3.45-3.49-3,1,.4-2L243,125l2.84-2.38-2.5.65.87-4.33,1.63-1-1.5.4,1.5-7.5,1.93,9.64H245.8l2.08.76.84,4.31-2.92-.16,3.16,1.21.52,2.6.74,3.69-3.44-.29,3.81,2.12.6,3q3.87.45,7.72,1.12l6.9-7-5.91,2,.79-3.94,1.67-8.34,5.69-4.76-5,1.3,1.74-8.67,3.26-2.06-3,.79,3-15,3.86,19.28H268l4.17,1.53,1.67,8.62-5.84-.32,6.32,2.43,1,5.19,1.48,7.39-6.89-.58,7.62,4.24.51,2.54c16.5,5.24,33.36,13.69,51.51,26.06,46.94,32,121.28,19.88,156.36-25.18-15,8.45-29.81,15.15-44.61,19.44l-.26-1.28-3.81-2.12,3.44.29L440,157l-.52-2.6-3.16-1.22,2.92.16-.84-4.31-2.08-.76h1.93l-1.93-9.64-1.5,7.5,1.5-.4-1.63,1-.87,4.34,2.5-.65-2.84,2.38-.83,4.17-.39,2,3-1-3.45,3.49-1,5h0l-.91.19-.35-1.74-6.05-3.37,5.47.46-1.18-5.87-.83-4.13-5-1.93,4.64.25-1.33-6.84-3.31-1.21H425L421.92,127l-2.39,11.91,2.39-.63-2.59,1.64L418,146.78l4-1-4.52,3.78-1.33,6.62-.63,3.13,4.69-1.6-5.48,5.54,0,.22-1.14-5.69-1-5.19-6.32-2.43,5.84.32-1.67-8.62-4.17-1.53H410L406.12,121l-3,15,3-.79-3.26,2.07-.17.84-27.75-26.27" transform="translate(-20 -39.83)" style="fill:#b3b3b3"/></g><path d="M54.61,213.64C48,229.34,39.72,248.21,30,252c-2.23.82-4.45.82-6.68-2.46C21,246,18.63,241.88,21,235c3.52-10.55,13.48-17.58,25.08-22.15,1.17-2.7,2.34-5.62,3.63-8.44-3.63,3.75-8.09,6.8-12.78,6.45-8.44-.7-8.67-9.26-6-17,2.58-7.5,8.32-19.1,15.94-29.65a1.62,1.62,0,0,1,2.93,0c2.81,3.75,2.11,8.67-2.23,15.59a107,107,0,0,0-9,17.11c-2.34,5.74-2.11,9.85.59,10.08,4.57.35,10.43-7.15,16.41-17.35,5-8.67,10.08-19.22,14.18-25.2,1.05-1.52,1.88-1.76,2.93-.82,1.64,2.11,2.58,7.15-.47,13.13-3.52,6.8-10.67,20.86-15.59,32.23a62.41,62.41,0,0,0,20.74-18c.59-.82,1.64-.94,1.88.23s-.12,3.75-2.11,6.8C72.54,205.2,64.33,209.65,54.61,213.64ZM25.66,245.52c1.52,2.23,11.13-10.55,18.4-27.78C28.82,226.53,23.55,242.59,25.66,245.52Z" transform="translate(-20 -39.83)" style="fill:#c7b299"/><path d="M91.87,207.78c9.73.47,18.28-8.91,23.32-16.64.59-.94,1.52-.94,2,.12s.12,4.22-2,7.27c-4.92,7.15-13.95,12.54-23,12.66-14.88.23-20-14.42-12.42-29.54s19.57-21.21,25.43-17.81a21.8,21.8,0,0,1,6.92,6.09c2.11,2.81,1.17,10-3.75,15.94-5.74,7-13.6,10.08-21.8,3.4C82.85,200,85.66,207.43,91.87,207.78Zm9.73-27c3.75-4.92,6.33-11,4.69-12.31-2.46-2-12.19,5-17.7,16.17-.35.7-.7,1.41-.94,2C93.4,190.31,98.2,185.28,101.6,180.82Z" transform="translate(-20 -39.83)" style="fill:#c7b299"/><path d="M123,210.59c-10.78,0-13.13-14.88-3.4-28.95,9.38-13.48,18.64-18.87,24.61-18.87,4.57,0,6.92,3.63,6.92,7.74,1.76-2.93,3.28-5.27,4.1-6.45.94-1.41,1.88-1.76,2.81-.7,1.88,2.11,2.7,7,.12,12.89-2.34,5.27-8.56,14.42-11.13,20.39-2.81,6.68-2.34,11,1.29,10.67,7.5-.7,18-15.12,23.56-32.35-9.49-3.4,1.64-19.34,6.33-19.69,3.63-.23,2.46,6.68,0,14.77,4.22-.47,8.56-2.46,13-5.51,1.64-1.17,2.46-1.41,3.52-.23,2.23,2.46,5,7.85,1.64,11.84-5.51,6.33-11.49,14.53-13.36,20.39-2,6.45-.7,11,2.93,11.25,4.92.35,10.78-7.38,14.53-16.17.47-.94,1.29-1.17,1.76,0a10.35,10.35,0,0,1-.47,7.62c-3,7-10,12.19-16.41,12-8.91-.35-12.42-8.44-9.61-17.81,2.34-7.74,9.49-16.41,14.53-22a28.61,28.61,0,0,1-13.83,4.34c-5.74,16.53-16.29,34.22-28.83,35.16-6.45.47-10-3.63-9.84-9.61C134.06,206,128.79,210.59,123,210.59Zm4.34-24.26c-6.33,10.08-7.62,20.28-3,20.39s10.78-7,16.76-17.58c7.27-12.77,8.32-20.16,4.92-20.39C142.39,168.52,133.83,176,127.38,186.33Z" transform="translate(-20 -39.83)" style="fill:#c7b299"/><path d="M235.09,163.36c3.87.59,7.5,6.33,4.57,12.42-2.46,5.16-8.2,13.83-10.9,19.92-3,6.8-2.34,12.31,1.88,12.07,4.81-.23,10.55-8,15-16.17.59-1.06,1.41-1.06,2-.12.82,1.29.59,4-1.05,7.38-3.16,6.56-10.55,12.54-17.35,12.54-10,0-12.31-7.27-8.91-17.46,3.87-11.49,14.18-23.91,12.07-24.85-1.17-.47-8,2.81-15.47,11-6.92,7.5-12.07,18.75-17.11,29.77-.47,1.05-1.17,1.52-2.23.47-2.34-2.34-3-6.21-1.17-12.07,2.34-7.38,11.37-23.68,18.75-34.58.82-1.29,1.76-1.17,2.46,0,1.76,2.93,1.64,6.92.35,11.13C223.25,169.22,231.22,162.77,235.09,163.36Z" transform="translate(-20 -39.83)" style="fill:#c7b299"/></svg>